<svg width="24" height="24" viewBox="0 0 24 24" fill="none" xmlns="http://www.w3.org/2000/svg">
<path d="M2 12C2 6.47773 6.47773 2 12 2C17.5223 2 22 6.47773 22 12C22 17.5223 17.5223 22 12 22C6.47773 22 2 17.5223 2 12Z" fill="white" stroke="#FF4646" stroke-width="2"/>
<path d="M12.5547 13.562C12.5235 13.8122 12.3108 14 12.0586 14H11.9414C11.6892 14 11.4765 13.8122 11.4453 13.562L10.5703 6.56202C10.5329 6.26359 10.7656 6 11.0664 6H12.9336C13.2344 6 13.4671 6.26359 13.4297 6.56202L12.5547 13.562Z" fill="#FF4646"/>
<circle cx="12" cy="17" r="1" fill="#FF4646"/>
</svg>
