<svg width="24" height="24" viewBox="0 0 24 24" fill="none" xmlns="http://www.w3.org/2000/svg">
<path d="M2 12C2 6.47773 6.47773 2 12 2C17.5223 2 22 6.47773 22 12C22 17.5223 17.5223 22 12 22C6.47773 22 2 17.5223 2 12Z" fill="white" stroke="#04C091" stroke-width="2"/>
<path d="M15.4937 9.25844C15.8383 8.91385 16.397 8.91385 16.7416 9.25844C17.0861 9.60302 17.0861 10.1617 16.7416 10.5063L11.4474 15.8004C11.1029 16.145 10.5442 16.145 10.1996 15.8004L7.25844 12.8592C6.91385 12.5146 6.91385 11.956 7.25844 11.6114C7.60302 11.2668 8.16169 11.2668 8.50627 11.6114L10.8235 13.9286L15.4937 9.25844Z" fill="#04C091"/>
</svg>
